<svg xmlns="http://www.w3.org/2000/svg" xmlns:xlink="http://www.w3.org/1999/xlink" version="1.1" x="0px" y="0px" viewBox="0 0 100 100" enable-background="new 0 0 100 100" xml:space="preserve"><path fill="#000000" d="M78,26.375C78,21.197,73.803,17,68.625,17h-42.25C21.197,17,17,21.197,17,26.375v42.25  C17,73.803,21.197,78,26.375,78h42.25C73.803,78,78,73.803,78,68.625V26.375z M76,68.816C76,72.784,72.784,76,68.816,76H26.184  C22.216,76,19,72.784,19,68.816V26.184C19,22.216,22.216,19,26.184,19h42.633C72.784,19,76,22.216,76,26.184V68.816z"></path><g><path fill="#000000" d="M57.385,56.762c-0.888-0.229-1.774,0.307-1.998,1.186c-1.453,5.695-6.579,9.674-12.466,9.674   c-7.095,0-12.867-5.772-12.867-12.867c0-4.365,2.186-8.396,5.847-10.785c0.76-0.496,0.974-1.514,0.478-2.274   s-1.513-0.975-2.274-0.478c-4.594,2.998-7.337,8.058-7.337,13.537c0,8.906,7.246,16.152,16.153,16.152   c7.39,0,13.826-4.995,15.65-12.146C58.795,57.88,58.264,56.985,57.385,56.762z"></path><path fill="#000000" d="M70.274,58.234c-0.389-0.819-1.367-1.17-2.188-0.782l-3.057,1.447l-6.706-10.088   C58.019,48.356,57.507,48,56.959,48H43.666l-4.114-15.33c2.468-0.003,4.469-1.962,4.469-4.431c0-2.47-2.003-4.452-4.473-4.452   c-2.471,0-4.473,2.013-4.473,4.483c0,0.637,0.138,1.246,0.378,1.794c0.009,0.058,0.012,0.118,0.028,0.176l5.336,19.765   C41.008,50.725,41.66,51,42.404,51h13.678l7.007,10.68c0.313,0.467,0.832,0.841,1.365,0.841c0.236,0,0.477,0.005,0.702-0.102   l4.336-2.024C70.312,60.006,70.662,59.055,70.274,58.234z"></path><path fill="#000000" d="M45.677,41h8.579c0.907,0,1.643-0.593,1.643-1.5S55.163,38,54.256,38h-8.579   c-0.907,0-1.643,0.593-1.643,1.5S44.77,41,45.677,41z"></path></g><g><g><path fill="#000000" d="M182.84,28.7c0-4.554,3.726-8.279,8.279-8.279h42.224c4.553,0,8.279,3.726,8.279,8.279v42.222    c0,4.555-3.727,8.279-8.279,8.279h-42.224c-4.554,0-8.279-3.725-8.279-8.279V28.7z"></path><path fill="#000000" stroke="#1A171B" stroke-width="2.1906" stroke-linecap="round" d="M182.84,28.7    c0-4.554,3.726-8.279,8.279-8.279h42.224c4.553,0,8.279,3.726,8.279,8.279v42.222c0,4.555-3.727,8.279-8.279,8.279h-42.224    c-4.554,0-8.279-3.725-8.279-8.279V28.7z"></path></g><g><path fill="#000000" stroke="#1A171B" stroke-width="2.7845" stroke-linecap="round" stroke-linejoin="round" d="M206.337,44.087    c0-4,3.254-7.254,7.254-7.254s7.254,3.254,7.254,7.254"></path><path fill="#000000" stroke="#1A171B" stroke-width="2.7845" stroke-linecap="round" stroke-linejoin="round" d="M207.315,41.859    c3.718-1.476,7.943,0.347,9.42,4.064c0.891,2.243,0.58,4.671-0.623,6.568"></path><path fill="#000000" stroke="#1A171B" stroke-width="2.7845" stroke-linecap="round" stroke-linejoin="round" d="M210.79,52.93    c-0.008,2.157-0.972,4.289-2.804,5.711c-1.556,1.207-3.452,1.68-5.269,1.473"></path><g><path fill="#000000" stroke="#1A171B" stroke-width="3.7635" stroke-linecap="round" stroke-linejoin="round" d="M208.446,72.498     L208.446,72.498c-4.581,0-8.309-3.727-8.309-8.307c0-2.129,0.805-4.072,2.124-5.544"></path><path fill="#000000" stroke="#1A171B" stroke-width="3.2859" stroke-linecap="round" stroke-linejoin="round" d="M200.915,43.024     c0-7.028,5.697-12.725,12.725-12.725c7.029,0,12.836,6.188,12.725,12.725c-0.129,7.662-4.803,29.602-17.918,29.474"></path></g><circle fill="#000000" cx="208.787" cy="52.722" r="3.174"></circle><path fill="#000000" stroke="#1A171B" stroke-width="2.7845" stroke-linecap="round" stroke-linejoin="round" d="M212.968,60.526    c0,1.597-1.295,2.892-2.891,2.892c-1.598,0-2.892-1.295-2.892-2.892c0-0.364,0.067-0.712,0.19-1.034"></path><path fill="#000000" stroke="#1A171B" stroke-width="2.7845" stroke-linecap="round" stroke-linejoin="round" d="M216.896,58.178    c0,1.378-1.115,2.494-2.494,2.494c-0.533,0-1.027-0.166-1.432-0.451"></path><g><polygon fill="#000000" points="222.397,35.159 230.452,27.123 236.847,27.13 225.815,38.803 222.397,35.159    "></polygon></g><g><polygon fill="#000000" points="187.614,69.651 201.534,56.34 207.403,56.348 193.833,69.75 187.614,69.651    "></polygon></g></g></g><g><path fill="#000000" d="M247.519,28.709c0-4.554,3.727-8.279,8.279-8.279h42.223c4.555,0,8.279,3.726,8.279,8.279v42.222   c0,4.555-3.725,8.279-8.279,8.279h-42.223c-4.553,0-8.279-3.725-8.279-8.279V28.709z"></path><path fill="#000000" stroke="#1A171B" stroke-width="2.1906" stroke-linecap="round" d="M247.519,28.709   c0-4.554,3.727-8.279,8.279-8.279h42.223c4.555,0,8.279,3.726,8.279,8.279v42.222c0,4.555-3.725,8.279-8.279,8.279h-42.223   c-4.553,0-8.279-3.725-8.279-8.279V28.709z"></path></g><g><path fill="#000000" d="M311.347,28.709c0-4.554,3.725-8.279,8.279-8.279h42.223c4.553,0,8.279,3.726,8.279,8.279v42.222   c0,4.555-3.727,8.279-8.279,8.279h-42.223c-4.555,0-8.279-3.725-8.279-8.279V28.709z"></path><path fill="#000000" stroke="#1A171B" stroke-width="2.1906" stroke-linecap="round" d="M311.347,28.709   c0-4.554,3.725-8.279,8.279-8.279h42.223c4.553,0,8.279,3.726,8.279,8.279v42.222c0,4.555-3.727,8.279-8.279,8.279h-42.223   c-4.555,0-8.279-3.725-8.279-8.279V28.709z"></path></g><path fill="#000000" stroke="#1A171B" stroke-width="3.6245" stroke-linecap="round" stroke-linejoin="round" d="M269.45,69.561  c-4.545-0.84-8.564-4.868-8.535-9.651"></path><path fill="#000000" stroke="#1A171B" stroke-width="3.6245" stroke-linecap="round" stroke-linejoin="round" d="M256.698,39.198  c0-1.854,1.502-3.356,3.355-3.356s3.357,1.503,3.357,3.356"></path><path fill="#000000" d="M294.235,21.305c0,0,1.959,5.979,2.674,14.313c3.217,0,5.906,2.74,5.906,6.12  c0,3.381-2.773,7.083-5.988,7.083c0,31.876-7.9,30.062-33.814,30.062c10.898-5.363,5.736-21.932,5.736-21.932  c1.877,0.177,7.949,1.312,9.113-3.934c1.475-6.641-4.49-6.907-7.295-12.98c-2.029-4.39-3.547-18.732-3.547-18.732H294.235z"></path><path fill="#000000" stroke="#FFFFFF" stroke-width="3.6245" stroke-linecap="round" stroke-linejoin="round" d="M280.134,39.198  c0-1.854,1.502-3.356,3.355-3.356s3.357,1.503,3.357,3.356"></path><path fill="#000000" stroke="#FFFFFF" stroke-width="3.6245" stroke-linecap="round" stroke-linejoin="round" d="M279.604,63.737  c-1.48,3.517-4.543,5.937-8.598,5.912"></path><g><path d="M352.649,30.62c0.156,0.484,0.34,0.963,0.531,1.44C352.989,31.583,352.806,31.104,352.649,30.62   c-0.076-0.238-0.174-0.452-0.279-0.653C352.476,30.168,352.571,30.382,352.649,30.62z"></path><path d="M350.255,28.506L350.255,28.506c-0.254-0.008-0.508,0.035-0.76,0.102C349.747,28.541,350.001,28.498,350.255,28.506z"></path><path d="M337.659,27.798c0.707,0.593,1.459,1.231,2.23,1.892C339.118,29.029,338.366,28.392,337.659,27.798z"></path><path d="M356.249,39.323c0.551,1.748,0.781,3.426,0.688,4.987c0.094-1.561-0.137-3.239-0.686-4.987   c-0.494-1.573-1.189-3.069-1.859-4.516c-0.158-0.339-0.316-0.682-0.473-1.026c0.156,0.345,0.314,0.687,0.473,1.026   C355.062,36.254,355.755,37.75,356.249,39.323z"></path><path d="M356.833,45.527c-0.168,1.642-0.252,2.466,1.168,3.732C356.581,47.993,356.665,47.168,356.833,45.527z"></path><path d="M349.956,60.476c-0.174-0.174-0.369-0.367-0.574-0.565C349.587,60.109,349.782,60.303,349.956,60.476   c0.004,0.005,0.008,0.008,0.012,0.012C349.964,60.483,349.96,60.48,349.956,60.476z"></path><path d="M359.192,50.36c-0.01-0.009-0.174-0.179-0.631-0.597C359.019,50.181,359.183,50.351,359.192,50.36   c1.049,1.082,1.268,2.945,0.496,4.24C360.46,53.305,360.241,51.441,359.192,50.36z"></path><path d="M352.044,61.823c0.002,0.001,0.006-0.001,0.008,0C352.05,61.822,352.046,61.824,352.044,61.823z"></path><path d="M339.562,55.625c0.715,0.572,1.666,1.168,2.859,1.405C341.228,56.793,340.276,56.197,339.562,55.625z"></path><path d="M348.849,59.404c-0.053-0.05-0.107-0.098-0.16-0.146C348.741,59.307,348.796,59.355,348.849,59.404z"></path><path d="M351.476,61.694c-0.119-0.045-0.234-0.101-0.346-0.167c0.111,0.066,0.227,0.122,0.348,0.168   c0.162,0.061,0.334,0.095,0.51,0.115C351.812,61.79,351.64,61.756,351.476,61.694z"></path></g><path d="M352.249,62.082c-0.299,0-0.59-0.051-0.861-0.154c-0.268-0.1-0.518-0.249-0.74-0.442c-0.232-0.2-0.531-0.496-0.869-0.833  c-0.883-0.881-2.213-2.207-3.383-2.717c-1.057-0.462-1.863-0.508-3.094-0.546c-2.01-0.063-3.463-1.158-4.381-1.977  c-1.443-1.288-2.975-2.536-4.455-3.743c-1.713-1.395-3.484-2.838-5.154-4.37c-1.25-1.146-2.494-2.299-3.729-3.464  c-0.119-0.112-0.248-0.227-0.379-0.344c-0.771-0.693-1.621-1.455-1.986-2.507c-0.57-1.631,0.432-3.335,1.693-4.325  c-0.773-1.646-0.566-3.306,0.604-4.828c-1.094-1.362-0.934-2.726,0.502-4.395c0.766-0.892,1.537-1.325,2.359-1.325  c0.623,0,1.25,0.241,2.014,0.777c1.033-1.151,2.047-1.696,3.115-1.696c1.494,0,2.744,1.072,3.848,2.017l0.469,0.398  c2.781,2.333,6.277,5.375,9.299,8.088c-0.514-1.452-1.09-3.096-0.428-4.761c0.627-1.578,2.059-2.681,3.482-2.681l0.088,0.001  c1.211,0.039,2.166,0.873,2.625,2.287c0.459,1.417,1.105,2.811,1.73,4.159c0.674,1.452,1.369,2.954,1.869,4.546  c0.561,1.777,0.795,3.485,0.699,5.077c-0.025,0.439-0.066,0.843-0.105,1.219c-0.164,1.614-0.238,2.347,1.086,3.528  c0.818,0.728,1.162,1.067,1.209,1.118c1.121,1.155,1.354,3.149,0.527,4.537c-0.416,0.696-4.139,6.817-7.213,7.318  C352.54,62.07,352.394,62.082,352.249,62.082z M328.376,26.612c-0.668,0-1.314,0.376-1.98,1.151c-1.648,1.915-1.152,3.006-0.371,3.9  l0.141,0.159l-0.135,0.164c-1.215,1.484-1.408,3.05-0.572,4.654l0.117,0.222l-0.289,0.145c-1.158,0.875-2.092,2.392-1.596,3.813  c0.324,0.931,1.121,1.647,1.824,2.278c0.158,0.141,0.289,0.259,0.41,0.374c1.234,1.164,2.477,2.315,3.725,3.46  c1.66,1.521,3.424,2.959,5.131,4.351c1.486,1.209,3.021,2.461,4.475,3.757c0.859,0.767,2.215,1.792,4.062,1.85  c1.289,0.04,2.139,0.089,3.279,0.588c1.256,0.548,2.627,1.914,3.533,2.818c0.32,0.321,0.625,0.622,0.844,0.812  c0.18,0.154,0.379,0.273,0.59,0.354c0.322,0.121,0.678,0.152,1.045,0.092c2.316-0.378,5.404-4.629,6.865-7.081  c0.717-1.203,0.514-2.933-0.461-3.938c-0.006-0.006-0.277-0.288-1.178-1.089c-1.516-1.351-1.422-2.271-1.252-3.943  c0.039-0.378,0.08-0.774,0.105-1.207c0.092-1.531-0.137-3.178-0.678-4.897c-0.49-1.562-1.18-3.048-1.846-4.486  c-0.633-1.362-1.285-2.77-1.754-4.215c-0.389-1.202-1.178-1.909-2.164-1.941l-0.072-0.001c-1.203,0-2.473,0.995-3.018,2.365  c-0.596,1.498-0.045,3.053,0.441,4.426c0.109,0.311,0.215,0.612,0.307,0.905l0.277,0.877l-0.682-0.616  c-3.17-2.863-7.002-6.205-10.002-8.721l-0.471-0.4c-1.039-0.89-2.215-1.897-3.523-1.897c-0.969,0-1.908,0.545-2.871,1.667  l-0.15,0.19l-0.205-0.124C329.521,26.863,328.935,26.612,328.376,26.612z M352.243,60.59c-0.234,0-0.438-0.078-0.623-0.237  c-0.195-0.168-0.447-0.42-0.744-0.716c-1.059-1.056-2.451-2.445-3.883-3.07c-1.369-0.6-2.471-0.633-3.639-0.669  c-1.184-0.036-2.24-0.529-3.438-1.599c-1.469-1.309-3.014-2.568-4.508-3.786c-1.609-1.312-3.436-2.798-5.088-4.313  c-1.246-1.142-2.486-2.291-3.715-3.451c-0.127-0.12-0.262-0.241-0.4-0.366c-0.641-0.575-1.338-1.199-1.578-1.89  c-0.332-0.951,0.387-2.038,1.248-2.692l0.191-0.138l0.176,0.153c1.48,1.797,3.289,3.275,5.037,4.705l0.053,0.042  c0.611,0.5,1.223,1,1.814,1.509c0.045,0.038,0.094,0.067,0.15,0.088c0.188,0.073,0.416,0.014,0.551-0.142  c0.086-0.1,0.129-0.229,0.119-0.361c-0.012-0.132-0.072-0.253-0.172-0.339c-0.615-0.53-1.25-1.048-1.887-1.568  c-1.746-1.426-3.555-2.902-4.969-4.644c-1.254-1.54-1.324-2.979-0.215-4.396l0.16-0.207l0.199,0.171  c1.949,1.675,3.887,3.328,5.848,5.002l3.439,2.938c0.045,0.038,0.096,0.067,0.148,0.087c0.191,0.073,0.42,0.015,0.553-0.142  c0.178-0.208,0.152-0.522-0.055-0.7l-3.777-3.225c-1.875-1.6-3.729-3.182-5.594-4.787c-0.738-0.634-1.195-1.056-1.314-1.571  c-0.141-0.598,0.225-1.178,0.814-1.865c0.361-0.418,0.701-0.814,1.203-0.814c0.504,0,1.066,0.352,2.406,1.504l1.879,1.613  c2.449,2.101,4.354,3.734,7.107,6.211c0.195,0.179,0.525,0.159,0.699-0.037c0.09-0.099,0.135-0.226,0.129-0.358  c-0.008-0.132-0.066-0.254-0.164-0.343c-2.768-2.49-4.678-4.129-7.098-6.204l-2.084-1.788l0.162-0.19  c0.783-0.908,1.439-1.313,2.129-1.313c0.871,0,1.699,0.654,2.865,1.653l0.48,0.408c3.432,2.879,7.947,6.835,11.232,9.842  l0.096,0.087l-0.018,0.128c-0.229,1.84-1.451,3.4-2.746,5.052c-0.613,0.786-1.217,1.556-1.693,2.335  c-0.143,0.234-0.068,0.541,0.164,0.683c0.23,0.14,0.545,0.063,0.684-0.164c0.451-0.738,1.014-1.458,1.611-2.22  c1.621-2.07,3.439-4.391,2.926-7.306c-0.115-0.655-0.354-1.326-0.584-1.976c-0.469-1.326-0.91-2.578-0.453-3.729  c0.387-0.975,1.305-1.738,2.092-1.738c0.607,0.017,1.029,0.439,1.293,1.254c0.484,1.497,1.15,2.933,1.795,4.321  c0.664,1.436,1.336,2.886,1.803,4.372c0.504,1.606,0.717,3.133,0.633,4.54c-0.023,0.402-0.061,0.773-0.096,1.12  c-0.188,1.844-0.32,3.143,1.574,4.831c0.666,0.594,1.117,1.021,1.152,1.075c0.627,0.639,0.775,1.893,0.293,2.702  c-1.029,1.726-4.143,6.278-6.17,6.608C352.378,60.584,352.308,60.59,352.243,60.59z"></path><g><path fill="#000000" d="M359.366,59.239c-0.016-0.008-0.391-0.183-1.502-0.611c-1.775-0.685-1.988-1.485-2.41-3.081   c-0.096-0.363-0.199-0.755-0.33-1.176c-0.463-1.493-1.27-2.982-2.4-4.425c-1.016-1.298-2.193-2.454-3.33-3.572   c-1.068-1.048-2.17-2.132-3.105-3.305c-0.857-1.074-1.947-1.488-2.986-1.135c-1.262,0.429-2.197,1.915-2.229,3.533   c-0.029,1.704,1.064,3.005,2.031,4.152c0.211,0.25,0.414,0.492,0.602,0.731c-3.918-1.542-8.682-3.321-12.441-4.642l-0.58-0.208   c-2.197-0.798-4.932-1.791-6.385,2.186c-0.004,0.011-0.002,0.021-0.006,0.033c-1.59-0.456-2.998-0.408-3.818,1.839   c-0.859,2.354-0.137,3.399,1.145,4.086c-0.648,1.916-0.238,3.559,1.176,4.823c-0.029,0.032-0.064,0.055-0.088,0.092   c-0.812,1.298-1.166,3.167-0.121,4.418c0.674,0.807,1.703,1.208,2.613,1.562c0.176,0.068,0.348,0.135,0.508,0.202   c1.566,0.654,3.135,1.295,4.709,1.927c2.094,0.842,4.258,1.567,6.35,2.269c1.814,0.609,3.691,1.238,5.498,1.938   c1.111,0.428,2.797,0.927,4.625,0.303c1.193-0.407,1.988-0.654,3.184-0.592c1.322,0.067,3.062,0.854,4.213,1.373   c0.439,0.197,0.812,0.365,1.088,0.467c0.252,0.092,0.51,0.138,0.764,0.138c0.387,0,0.771-0.105,1.135-0.315   c2.6-1.494,3.91-8.432,4.051-9.217C361.591,61.549,360.729,59.882,359.366,59.239z"></path></g><g><path d="M359.366,59.239c-0.016-0.008-0.391-0.183-1.502-0.611c-1.775-0.685-1.988-1.485-2.41-3.081   c-0.096-0.363-0.199-0.755-0.33-1.176c-0.463-1.493-1.27-2.982-2.4-4.425c-1.016-1.298-2.193-2.454-3.33-3.572   c-1.068-1.048-2.17-2.132-3.105-3.305c-0.857-1.074-1.947-1.488-2.986-1.135c-1.262,0.429-2.199,1.915-2.229,3.533   c-0.029,1.704,1.064,3.005,2.031,4.152c0.211,0.25,0.414,0.492,0.602,0.731c-3.918-1.542-8.682-3.321-12.441-4.642l-0.58-0.208   c-2.197-0.798-4.932-1.791-6.385,2.186c-0.004,0.011-0.002,0.021-0.006,0.033c-1.59-0.456-2.998-0.408-3.818,1.839   c-0.859,2.354-0.137,3.399,1.145,4.086c-0.648,1.916-0.238,3.559,1.176,4.823c-0.029,0.032-0.064,0.055-0.088,0.092   c-0.812,1.298-1.166,3.167-0.121,4.418c0.674,0.807,1.703,1.208,2.613,1.562c0.176,0.068,0.348,0.135,0.508,0.202   c1.566,0.654,3.135,1.295,4.709,1.927c2.094,0.842,4.258,1.567,6.35,2.269c1.814,0.609,3.691,1.238,5.498,1.938   c1.111,0.428,2.797,0.927,4.625,0.303c1.193-0.407,1.988-0.654,3.184-0.592c1.322,0.067,3.062,0.854,4.213,1.373   c0.438,0.197,0.812,0.365,1.088,0.467c0.252,0.092,0.51,0.138,0.764,0.138c0.387,0,0.77-0.105,1.135-0.315   c2.6-1.494,3.91-8.432,4.051-9.217C361.589,61.549,360.729,59.882,359.366,59.239z M359.854,62.77   c-0.484,2.704-1.816,7.318-3.324,8.186c-0.227,0.131-0.42,0.151-0.645,0.068c-0.248-0.09-0.588-0.244-0.984-0.424   c-1.33-0.6-3.148-1.421-4.752-1.504c-1.543-0.082-2.613,0.285-3.742,0.672c-1.055,0.359-2.166,0.271-3.604-0.284   c-1.84-0.71-3.732-1.345-5.562-1.959c-2.072-0.694-4.215-1.414-6.268-2.239c-1.566-0.629-3.131-1.267-4.689-1.919   c-0.172-0.072-0.354-0.144-0.543-0.216c-0.74-0.289-1.58-0.616-2.008-1.128c-0.562-0.673-0.27-1.854,0.24-2.667   c0.006-0.01,0.006-0.021,0.012-0.031c2.02,1.162,4.254,1.919,6.418,2.648c0.768,0.259,1.533,0.517,2.287,0.791   c0.084,0.031,0.17,0.046,0.256,0.046c0.305,0,0.59-0.188,0.701-0.491c0.143-0.387-0.059-0.816-0.445-0.957   c-0.764-0.279-1.541-0.541-2.322-0.805c-2.127-0.717-4.328-1.457-6.242-2.574c-1.623-0.946-2.139-2.146-1.637-3.748   c2.414,0.881,4.811,1.746,7.236,2.621l4.254,1.537c0.084,0.03,0.17,0.045,0.254,0.045c0.305,0,0.592-0.189,0.703-0.492   c0.139-0.389-0.061-0.816-0.449-0.957l-4.254-1.537c-2.461-0.889-4.889-1.764-7.338-2.659c-1.729-0.631-2.195-0.895-1.529-2.719   c0.457-1.249,0.627-1.454,3.299-0.477l2.328,0.847c3,1.091,5.369,1.952,8.834,3.308c0.385,0.151,0.816-0.04,0.967-0.424   s-0.039-0.816-0.422-0.967c-3.482-1.362-5.859-2.227-8.869-3.32l-2.311-0.842c0.902-2.471,2.025-2.181,4.471-1.292l0.596,0.213   c4.27,1.5,9.836,3.593,13.971,5.251c0.416,1.729-0.17,3.603-0.785,5.562c-0.291,0.926-0.592,1.882-0.77,2.811   c-0.076,0.405,0.189,0.796,0.594,0.874c0.408,0.077,0.797-0.188,0.875-0.594c0.16-0.843,0.436-1.718,0.725-2.643   c0.797-2.532,1.697-5.402,0.133-8.044c-0.348-0.588-0.814-1.142-1.266-1.677c-0.875-1.039-1.701-2.02-1.68-3.164   c0.018-0.961,0.562-1.924,1.215-2.146c0.428-0.146,0.877,0.073,1.338,0.651c0.992,1.243,2.127,2.359,3.227,3.438   c1.104,1.085,2.246,2.207,3.201,3.428c1.018,1.299,1.742,2.627,2.15,3.946c0.123,0.399,0.221,0.771,0.312,1.116   c0.463,1.75,0.828,3.133,3.316,4.092c1.043,0.402,1.4,0.567,1.4,0.568C359.474,60.94,359.999,61.959,359.854,62.77z"></path><path fill="#000000" d="M356.138,72.815c-0.285,0-0.57-0.052-0.85-0.153c-0.285-0.105-0.67-0.277-1.105-0.474   c-1.135-0.513-2.848-1.286-4.123-1.352c-1.135-0.054-1.893,0.171-3.088,0.579c-0.598,0.205-1.229,0.309-1.875,0.309   c-1.193,0-2.238-0.352-2.922-0.615c-1.793-0.692-3.658-1.318-5.461-1.923c-2.127-0.714-4.293-1.44-6.391-2.284   c-1.574-0.632-3.145-1.272-4.711-1.928c-0.146-0.061-0.303-0.121-0.463-0.184c-0.979-0.383-2.041-0.796-2.754-1.651   c-1.107-1.326-0.771-3.274,0.061-4.646c-1.303-1.267-1.693-2.895-1.137-4.73c-1.502-0.89-1.834-2.223-1.078-4.29   c0.549-1.501,1.424-2.231,2.68-2.231c0.361,0,0.754,0.057,1.221,0.178c0.768-1.961,1.924-2.895,3.537-2.895   c1.049,0,2.135,0.394,3.092,0.742l0.578,0.208c3.428,1.204,7.771,2.819,11.555,4.294c-0.992-1.178-2.111-2.514-2.08-4.305   c0.031-1.721,1.041-3.304,2.398-3.766c1.125-0.382,2.35,0.072,3.262,1.216c0.928,1.163,2.025,2.24,3.084,3.282   c1.145,1.123,2.326,2.284,3.354,3.596c1.148,1.466,1.971,2.982,2.441,4.506c0.133,0.424,0.236,0.818,0.334,1.186   c0.412,1.561,0.602,2.272,2.258,2.911c1.02,0.393,1.461,0.59,1.523,0.621c1.455,0.686,2.377,2.471,2.092,4.061   c-0.143,0.799-1.473,7.838-4.172,9.391C356.995,72.698,356.571,72.815,356.138,72.815z M349.716,70.328   c0.119,0,0.242,0.003,0.369,0.01c1.369,0.07,3.135,0.867,4.303,1.395c0.428,0.193,0.805,0.361,1.072,0.461   c0.562,0.203,1.148,0.15,1.689-0.16c2.033-1.169,3.426-6.235,3.928-9.045c0.248-1.379-0.551-2.926-1.818-3.523   c-0.006-0.003-0.361-0.171-1.484-0.604c-1.895-0.73-2.131-1.625-2.562-3.25c-0.094-0.361-0.197-0.749-0.326-1.166   c-0.453-1.465-1.248-2.927-2.359-4.345c-1.006-1.286-2.178-2.436-3.309-3.548c-1.07-1.052-2.178-2.14-3.125-3.327   c-0.779-0.977-1.781-1.369-2.711-1.054c-1.164,0.396-2.031,1.784-2.059,3.301c-0.029,1.611,1.035,2.873,1.973,3.987   c0.213,0.252,0.418,0.497,0.607,0.738l0.566,0.723l-0.855-0.336c-3.971-1.562-8.734-3.339-12.432-4.638l-0.582-0.208   c-0.92-0.334-1.961-0.712-2.922-0.712c-1.459,0-2.459,0.874-3.145,2.749l-0.072,0.235l-0.236-0.048   c-0.521-0.149-0.936-0.219-1.305-0.219c-1.049,0-1.73,0.587-2.211,1.903c-0.865,2.372-0.018,3.219,1.027,3.78l0.188,0.101   l-0.068,0.2c-0.613,1.817-0.242,3.35,1.105,4.557l0.186,0.166l-0.217,0.238c-0.775,1.228-1.117,2.977-0.152,4.132   c0.631,0.757,1.629,1.146,2.51,1.489c0.207,0.08,0.367,0.143,0.518,0.205c1.562,0.654,3.133,1.294,4.705,1.926   c2.084,0.838,4.242,1.562,6.328,2.262c1.842,0.618,3.713,1.246,5.516,1.941c0.646,0.25,1.633,0.582,2.742,0.582   c0.592,0,1.168-0.096,1.713-0.281C347.929,70.561,348.685,70.328,349.716,70.328z M356.142,71.323   c-0.111,0-0.225-0.021-0.342-0.064c-0.244-0.089-0.574-0.237-0.961-0.413c-1.35-0.609-3.145-1.42-4.703-1.5   c-1.498-0.074-2.529,0.276-3.639,0.654c-1.141,0.391-2.275,0.299-3.783-0.283c-1.828-0.705-3.713-1.338-5.533-1.949   c-2.086-0.699-4.223-1.416-6.301-2.25c-1.568-0.63-3.133-1.268-4.691-1.921c-0.166-0.069-0.342-0.138-0.521-0.208   c-0.785-0.305-1.658-0.645-2.125-1.206c-0.643-0.769-0.338-2.073,0.219-2.96l0.129-0.203l0.221,0.088   c2.016,1.16,4.23,1.906,6.373,2.629c0.779,0.262,1.543,0.52,2.293,0.793c0.25,0.092,0.545-0.047,0.637-0.297   c0.045-0.124,0.039-0.259-0.016-0.379c-0.057-0.121-0.156-0.212-0.281-0.258c-0.762-0.278-1.537-0.539-2.316-0.803   c-2.139-0.72-4.352-1.465-6.287-2.595c-1.717-0.999-2.289-2.321-1.75-4.039l0.078-0.25l0.246,0.09   c2.414,0.882,4.809,1.746,7.236,2.621l4.252,1.538c0.258,0.091,0.547-0.049,0.637-0.299c0.094-0.257-0.041-0.543-0.297-0.637   l-4.602-1.662c-2.344-0.846-4.658-1.681-6.992-2.533c-0.914-0.334-1.49-0.568-1.785-1.008c-0.34-0.511-0.203-1.182,0.107-2.033   c0.246-0.674,0.459-1.257,1.271-1.257c0.453,0,1.09,0.171,2.348,0.631l2.328,0.847c3.014,1.096,5.379,1.956,8.84,3.309   c0.25,0.1,0.545-0.034,0.643-0.281c0.1-0.255-0.027-0.543-0.281-0.643c-3.492-1.367-5.861-2.228-8.861-3.319l-2.549-0.927   l0.086-0.235c0.539-1.471,1.207-2.099,2.238-2.099c0.689,0,1.529,0.285,2.555,0.658l0.594,0.212   c4.232,1.487,9.852,3.599,13.98,5.255l0.119,0.047l0.031,0.126c0.432,1.803-0.162,3.694-0.791,5.696   c-0.295,0.943-0.59,1.881-0.762,2.782c-0.051,0.269,0.125,0.53,0.395,0.581c0.273,0.052,0.531-0.129,0.582-0.395   c0.162-0.852,0.438-1.728,0.727-2.654c0.785-2.498,1.67-5.312,0.162-7.858c-0.338-0.57-0.797-1.116-1.242-1.644   c-0.904-1.076-1.76-2.091-1.738-3.33c0.02-1.077,0.627-2.121,1.385-2.378c0.521-0.177,1.084,0.068,1.613,0.732   c0.982,1.232,2.113,2.343,3.207,3.417c1.119,1.101,2.262,2.224,3.223,3.452c1.037,1.324,1.775,2.68,2.191,4.027   c0.121,0.387,0.217,0.748,0.307,1.087c0.471,1.786,0.805,3.048,3.174,3.96c0.924,0.357,1.406,0.566,1.449,0.594   c0.82,0.384,1.4,1.506,1.234,2.433c-0.355,1.978-1.664,7.334-3.447,8.358C356.478,71.273,356.31,71.323,356.142,71.323z    M349.716,68.834c0.145,0,0.293,0.004,0.445,0.013c1.654,0.085,3.496,0.917,4.842,1.524c0.416,0.188,0.732,0.332,0.969,0.418   c0.156,0.059,0.27,0.045,0.434-0.051c1.359-0.781,2.691-5.156,3.203-8.013c0.125-0.698-0.346-1.608-0.986-1.909   c-0.004-0.002-0.354-0.164-1.385-0.562c-2.607-1.004-3.006-2.514-3.469-4.26c-0.098-0.371-0.191-0.727-0.311-1.106   c-0.398-1.29-1.107-2.591-2.105-3.866c-0.943-1.203-2.072-2.314-3.166-3.389c-1.119-1.099-2.26-2.22-3.262-3.476   c-0.389-0.487-0.734-0.683-1.061-0.571c-0.553,0.188-1.031,1.063-1.047,1.914c-0.02,1.051,0.777,1.997,1.621,2.999   c0.457,0.543,0.93,1.104,1.289,1.711c1.623,2.739,0.703,5.665-0.109,8.246c-0.291,0.93-0.561,1.791-0.719,2.615   c-0.1,0.531-0.617,0.897-1.166,0.793c-0.539-0.104-0.895-0.627-0.793-1.167c0.18-0.93,0.477-1.881,0.766-2.8   c0.604-1.924,1.164-3.709,0.82-5.344c-4.111-1.645-9.652-3.727-13.84-5.198l-0.596-0.213c-0.98-0.356-1.777-0.628-2.385-0.628   c-0.635,0-1.168,0.269-1.678,1.537l2.072,0.755c3.004,1.092,5.375,1.954,8.873,3.322c0.512,0.201,0.766,0.78,0.564,1.291   c-0.195,0.502-0.787,0.765-1.291,0.565c-3.455-1.351-5.816-2.21-8.807-3.298l-2.348-0.854c-0.986-0.361-1.734-0.601-2.178-0.601   c-0.418,0-0.531,0.188-0.803,0.929c-0.305,0.837-0.352,1.295-0.16,1.583c0.209,0.312,0.746,0.526,1.541,0.815   c2.334,0.854,4.648,1.689,6.99,2.534l4.602,1.662c0.516,0.188,0.785,0.761,0.598,1.276c-0.182,0.502-0.766,0.781-1.277,0.599   l-4.252-1.537c-2.344-0.845-4.656-1.681-6.984-2.53c-0.344,1.371,0.156,2.367,1.596,3.206c1.893,1.104,4.08,1.841,6.195,2.554   c0.783,0.264,1.562,0.526,2.328,0.807c0.25,0.091,0.449,0.273,0.562,0.516c0.111,0.241,0.123,0.512,0.031,0.762   c-0.184,0.502-0.775,0.777-1.277,0.595c-0.746-0.272-1.506-0.528-2.266-0.784c-2.104-0.709-4.262-1.437-6.262-2.551   c-0.406,0.762-0.574,1.693-0.15,2.197c0.385,0.463,1.193,0.777,1.906,1.056c0.201,0.078,0.379,0.147,0.549,0.219   c1.557,0.651,3.119,1.289,4.686,1.918c2.062,0.829,4.193,1.543,6.254,2.233c1.844,0.619,3.732,1.254,5.572,1.963   c1.393,0.539,2.428,0.625,3.434,0.281C347.378,69.171,348.362,68.834,349.716,68.834z"></path></g></svg>